<svg xmlns="http://www.w3.org/2000/svg" width="36" height="14" viewBox="0 0 36 14" fill="none">
<path d="M0.982455 7.83955L0.983687 7.8406L8.1282 13.5799C8.66343 14.0099 9.52687 14.0054 10.0568 13.5699C10.5867 13.1343 10.5824 12.4327 10.0472 12.0027L5.25034 8.14942L34.1313 8.05543C34.8844 8.05298 35.4934 7.55486 35.4914 6.94282C35.4894 6.33077 34.8772 5.83663 34.124 5.83908L5.2432 5.93307L10.0147 2.04865C10.5471 1.61517 10.5469 0.913529 10.0142 0.481465C9.48138 0.0492887 8.61787 0.0506035 8.08551 0.483973L0.978506 6.26966L0.977281 6.27071C0.444586 6.70563 0.448586 7.40954 0.982455 7.83955Z" fill="white"/>
</svg>