<svg xmlns="http://www.w3.org/2000/svg" width="10" height="11" viewBox="0 0 10 11" fill="none">
<g clip-path="url(#clip0_368_2828)">
<path d="M5.29458 1.66642C5.21645 1.5805 5.11049 1.53223 5 1.53223C4.88952 1.53223 4.78355 1.5805 4.70542 1.66642L2.34833 4.25921C2.30854 4.30149 2.2768 4.35207 2.25496 4.40798C2.23312 4.4639 2.22163 4.52405 2.22115 4.5849C2.22067 4.64576 2.23121 4.70611 2.25216 4.76244C2.27311 4.81877 2.30405 4.86994 2.34317 4.91298C2.38229 4.95601 2.42881 4.99004 2.48002 5.01309C2.53123 5.03613 2.58609 5.04773 2.64142 5.0472C2.69674 5.04667 2.75142 5.03403 2.80225 5.01001C2.85309 4.98599 2.89906 4.95107 2.9375 4.90729L4.58333 3.09688V9.16659C4.58333 9.28814 4.62723 9.40472 4.70537 9.49068C4.78351 9.57663 4.88949 9.62492 5 9.62492C5.11051 9.62492 5.21649 9.57663 5.29463 9.49068C5.37277 9.40472 5.41667 9.28814 5.41667 9.16659V3.09688L7.0625 4.90729C7.14109 4.99078 7.24634 5.03698 7.35558 5.03594C7.46483 5.03489 7.56934 4.98669 7.64659 4.90171C7.72385 4.81673 7.76767 4.70178 7.76862 4.5816C7.76956 4.46143 7.72757 4.34565 7.65167 4.25921L5.29458 1.66642Z" fill="#15171B"/>
</g>
<defs>
<clipPath id="clip0_368_2828">
<rect width="10" height="11" rx="3.33333" fill="white"/>
</clipPath>
</defs>
</svg>