<svg xmlns="http://www.w3.org/2000/svg" width="48" height="48" viewBox="0 0 48 48" fill="none">
<g clip-path="url(#clip0_485_1738)">
<path d="M47.282 29.8038C44.0754 42.6678 31.0421 50.4877 18.1965 47.2809C5.3321 44.0743 -2.48778 31.0415 0.719037 18.1961C3.92566 5.3321 16.94 -2.48777 29.8044 0.719038C42.65 3.90691 50.4888 16.9397 47.282 29.8038Z" fill="url(#paint0_linear_485_1738)"/>
<path d="M35.4272 21.0095C35.8959 17.822 33.4772 16.097 30.1397 14.9532L31.2272 10.622L28.6022 9.96572L27.5522 14.1845C26.8584 14.0157 26.1459 13.847 25.4334 13.697L26.4834 9.45947L23.8584 8.80322L22.7897 13.1157C22.2084 12.9845 21.6459 12.8532 21.1022 12.722V12.7032L17.4647 11.8032L16.7709 14.6157C16.7709 14.6157 18.7209 15.0657 18.6834 15.0845C19.7522 15.347 19.9397 16.0595 19.9022 16.622L18.6647 21.5532C18.7397 21.572 18.8334 21.5907 18.9459 21.647C18.8522 21.6282 18.7584 21.6095 18.6647 21.572L16.9397 28.472C16.8084 28.7907 16.4709 29.2782 15.7397 29.0907C15.7584 29.1282 13.8272 28.622 13.8272 28.622L12.5147 31.6407L15.9459 32.5032C16.5834 32.672 17.2022 32.822 17.8209 32.9907L16.7334 37.3595L19.3584 38.0157L20.4459 33.6845C21.1584 33.872 21.8709 34.0595 22.5459 34.2282L21.4772 38.5407L24.1022 39.197L25.1897 34.8282C29.6897 35.672 33.0647 35.3345 34.4709 31.2657C35.6147 28.0032 34.4147 26.1095 32.0522 24.872C33.7959 24.4782 35.0897 23.3345 35.4272 21.0095ZM29.4084 29.447C28.6022 32.7095 23.0897 30.947 21.3084 30.497L22.7522 24.7032C24.5334 25.1532 30.2709 26.0345 29.4084 29.447ZM30.2334 20.9532C29.4834 23.9345 24.9084 22.4157 23.4272 22.0407L24.7397 16.7907C26.2209 17.1657 31.0022 17.8595 30.2334 20.9532Z" fill="white"/>
</g>
<defs>
<linearGradient id="paint0_linear_485_1738" x1="2398.7" y1="-1.152" x2="2398.7" y2="4799.51" gradientUnits="userSpaceOnUse">
<stop stop-color="#F9AA4B"/>
<stop offset="1" stop-color="#F7931A"/>
</linearGradient>
<clipPath id="clip0_485_1738">
<rect width="48" height="48" fill="white"/>
</clipPath>
</defs>
</svg>