<svg xmlns="http://www.w3.org/2000/svg" width="40" height="40" viewBox="0 0 40 40" fill="none">
  <g clip-path="url(#clip0_424_2313)">
    <rect x="0.5" y="0.5" width="39" height="39" rx="19.5" fill="white"/>
    <path d="M20.2431 0.5L19.9999 1.41137V27.8573L20.2431 28.125L31.3749 20.8687L20.2431 0.5Z" fill="#343434"/>
    <path d="M20.0001 0.5L8.62506 20.8687L20.0001 28.125V15.289V0.5Z" fill="#8C8C8C"/>
    <path d="M20.1382 30.0629L19.9999 30.2359V39.0854L20.1382 39.5L31.3749 23.25L20.1382 30.0629Z" fill="#3C3C3B"/>
    <path d="M20.0001 39.5V30.0629L8.62506 23.25L20.0001 39.5Z" fill="#8C8C8C"/>
    <path d="M19.9999 28.125L31.3749 20.7761L19.9999 15.125V28.125Z" fill="#141414"/>
    <path d="M8.62506 20.7761L20.0001 28.125V15.125L8.62506 20.7761Z" fill="#393939"/>
  </g>
  <defs>
    <clipPath id="clip0_424_2313">
      <rect x="0.5" y="0.5" width="39" height="39" rx="19.5" fill="white"/>
    </clipPath>
  </defs>
</svg>