<svg xmlns="http://www.w3.org/2000/svg" width="50" height="49" viewBox="0 0 50 49" fill="none">
<path d="M15.5992 28.7727L24.1445 37.3156C24.3711 37.5421 24.6784 37.6694 24.9988 37.6694C25.3192 37.6694 25.6265 37.5421 25.8531 37.3156L34.3984 28.7727C34.625 28.5462 34.9323 28.4189 35.2527 28.4189C35.5731 28.4189 35.8804 28.5462 36.107 28.7727L39.8673 32.5306C40.0939 32.7572 40.2211 33.0645 40.2211 33.3849C40.2211 33.7053 40.0939 34.0126 39.8673 34.2392L25.8531 48.2534C25.6265 48.48 25.3192 48.6072 24.9988 48.6072C24.6784 48.6072 24.3711 48.48 24.1445 48.2534L10.1327 34.2392C9.90614 34.0126 9.77888 33.7053 9.77888 33.3849C9.77888 33.0645 9.90614 32.7572 10.1327 32.5306L13.893 28.7727C14.1196 28.5462 14.4269 28.4189 14.7473 28.4189C15.0677 28.4189 15.375 28.5462 15.6016 28.7727H15.5992ZM44.8263 19.7464L44.9931 19.8866L48.7534 23.6445C48.9536 23.8445 49.0772 24.1083 49.1029 24.39C49.1285 24.6718 49.0544 24.9536 48.8936 25.1864L48.7534 25.3555L44.9931 29.1134C44.7931 29.3136 44.5293 29.4373 44.2476 29.4629C43.9658 29.4885 43.684 29.4144 43.4512 29.2536L43.2845 29.1134L39.5242 25.3531C39.325 25.153 39.2021 24.8895 39.177 24.6083C39.1518 24.3271 39.2259 24.046 39.3864 23.8137L39.5242 23.6445L43.2845 19.8866C43.4589 19.7121 43.6825 19.5953 43.9253 19.5516C44.1681 19.508 44.4184 19.5397 44.6427 19.6425L44.8263 19.7464ZM6.7155 19.8866L10.4758 23.6445C10.7024 23.8711 10.8296 24.1784 10.8296 24.4988C10.8296 24.8192 10.7024 25.1265 10.4758 25.3531L6.7155 29.1159C6.4889 29.3424 6.18161 29.4696 5.86121 29.4696C5.5408 29.4696 5.23351 29.3424 5.00691 29.1159L1.24416 25.3531C1.01764 25.1265 0.890381 24.8192 0.890381 24.4988C0.890381 24.1784 1.01764 23.8711 1.24416 23.6445L5.0045 19.8866C5.23109 19.6601 5.53838 19.5328 5.85879 19.5328C6.1792 19.5328 6.4889 19.6601 6.7155 19.8866ZM25.6863 19.7464L25.8555 19.8866L29.6134 23.6445C29.8136 23.8445 29.9372 24.1083 29.9629 24.39C29.9885 24.6718 29.9144 24.9536 29.7536 25.1864L29.6134 25.3555L25.8555 29.1134C25.6556 29.3136 25.3917 29.4373 25.11 29.4629C24.8282 29.4885 24.5464 29.4144 24.3137 29.2536L24.1445 29.1134L20.3866 25.3531C20.187 25.1533 20.0637 24.89 20.0381 24.6087C20.0125 24.3275 20.0862 24.0462 20.2464 23.8137L20.3866 23.6445L24.1445 19.8866C24.3189 19.7121 24.5425 19.5953 24.7853 19.5516C25.0281 19.508 25.2784 19.5397 25.5027 19.6425L25.6863 19.7464ZM25.8555 0.746606L39.8673 14.7584C40.0939 14.985 40.2211 15.2923 40.2211 15.6127C40.2211 15.9331 40.0939 16.2404 39.8673 16.467L36.107 20.2274C35.8804 20.4539 35.5731 20.5811 35.2527 20.5811C34.9323 20.5811 34.625 20.4539 34.3984 20.2274L25.8555 11.6844C25.7433 11.5719 25.6099 11.4826 25.4631 11.4217C25.3163 11.3608 25.1589 11.3294 25 11.3294C24.8411 11.3294 24.6837 11.3608 24.5369 11.4217C24.3901 11.4826 24.2567 11.5719 24.1445 11.6844L15.6016 20.2274C15.375 20.4539 15.0677 20.5811 14.7473 20.5811C14.4269 20.5811 14.1196 20.4539 13.893 20.2274L10.1327 16.467C9.90614 16.2404 9.77888 15.9331 9.77888 15.6127C9.77888 15.2923 9.90614 14.985 10.1327 14.7584L24.1445 0.746606C24.3711 0.520079 24.6784 0.392822 24.9988 0.392822C25.3192 0.392822 25.6289 0.520079 25.8555 0.746606Z" fill="#FFD233"/>
</svg>