<svg xmlns="http://www.w3.org/2000/svg" width="24" height="24" viewBox="0 0 24 24" fill="none">
<path d="M13.05 15.5183H11.17C9.84001 15.5183 8.75 14.3983 8.75 13.0183C8.75 12.6083 9.09 12.2683 9.5 12.2683C9.91 12.2683 10.25 12.6083 10.25 13.0183C10.25 13.5683 10.66 14.0183 11.17 14.0183H13.05C13.44 14.0183 13.75 13.6683 13.75 13.2383C13.75 12.6983 13.6 12.6183 13.26 12.4983L10.25 11.4483C9.61 11.2283 8.75 10.7583 8.75 9.28827C8.75 8.0383 9.74001 7.0083 10.95 7.0083H12.83C14.16 7.0083 15.25 8.1283 15.25 9.50827C15.25 9.91827 14.91 10.2583 14.5 10.2583C14.09 10.2583 13.75 9.91827 13.75 9.50827C13.75 8.9583 13.34 8.5083 12.83 8.5083H10.95C10.56 8.5083 10.25 8.8583 10.25 9.28827C10.25 9.82827 10.4 9.90827 10.74 10.0283L13.75 11.0783C14.39 11.2983 15.25 11.7683 15.25 13.2383C15.25 14.4983 14.26 15.5183 13.05 15.5183Z" fill="#60FFCA"/>
<path d="M12 16.5181C11.59 16.5181 11.25 16.1781 11.25 15.7681V6.76807C11.25 6.35807 11.59 6.01807 12 6.01807C12.41 6.01807 12.75 6.35807 12.75 6.76807V15.7681C12.75 16.1781 12.41 16.5181 12 16.5181Z" fill="#60FFCA"/>
<path d="M12 22.0181C6.07 22.0181 1.25 17.1981 1.25 11.2681C1.25 5.33807 6.07 0.518066 12 0.518066C12.41 0.518066 12.75 0.858066 12.75 1.26807C12.75 1.67807 12.41 2.01807 12 2.01807C6.9 2.01807 2.75 6.16807 2.75 11.2681C2.75 16.3681 6.9 20.5181 12 20.5181C17.1 20.5181 21.25 16.3681 21.25 11.2681C21.25 10.8581 21.59 10.5181 22 10.5181C22.41 10.5181 22.75 10.8581 22.75 11.2681C22.75 17.1981 17.93 22.0181 12 22.0181Z" fill="#60FFCA"/>
<path d="M21 7.01807H17C16.59 7.01807 16.25 6.67807 16.25 6.26807V2.26807C16.25 1.85807 16.59 1.51807 17 1.51807C17.41 1.51807 17.75 1.85807 17.75 2.26807V5.51807H21C21.41 5.51807 21.75 5.85807 21.75 6.26807C21.75 6.67807 21.41 7.01807 21 7.01807Z" fill="#60FFCA"/>
<path d="M16.9995 7.0185C16.8095 7.0185 16.6195 6.9485 16.4695 6.7985C16.1795 6.5085 16.1795 6.0285 16.4695 5.7385L21.4695 0.738496C21.7595 0.448496 22.2395 0.448496 22.5295 0.738496C22.8195 1.0285 22.8195 1.5085 22.5295 1.7985L17.5295 6.7985C17.3795 6.9485 17.1895 7.0185 16.9995 7.0185Z" fill="#60FFCA"/>
</svg>