<svg xmlns="http://www.w3.org/2000/svg" width="50" height="50" viewBox="0 0 45 45" fill="none">
<path d="M22.1906 37.9318C17.889 37.9318 13.5875 37.2567 9.50751 35.9065C7.95674 35.3774 6.7752 34.3009 6.25828 32.896C5.72289 31.4911 5.90751 29.9402 6.75674 28.5535L8.87981 25.0686C9.32289 24.3388 9.72905 22.8791 9.72905 22.0216V16.7487C9.72905 9.96128 15.3229 4.43286 22.1906 4.43286C29.0583 4.43286 34.6522 9.96128 34.6522 16.7487V22.0216C34.6522 22.8609 35.0583 24.3388 35.5014 25.0869L37.606 28.5535C38.3999 29.8672 38.5476 31.4546 38.0122 32.896C37.4768 34.3374 36.3137 35.4321 34.8553 35.9065C30.7937 37.2567 26.4922 37.9318 22.1906 37.9318ZM22.1906 7.1697C16.8552 7.1697 12.4983 11.4574 12.4983 16.7487V22.0216C12.4983 23.3535 11.9444 25.3241 11.2614 26.4735L9.13828 29.9584C8.73212 30.6335 8.62135 31.3451 8.86135 31.9472C9.08289 32.5676 9.63674 33.0419 10.3937 33.2974C18.1106 35.8518 26.2891 35.8518 34.006 33.2974C34.6706 33.0784 35.1876 32.5858 35.4276 31.929C35.6676 31.2721 35.6122 30.5605 35.2429 29.9584L33.1199 26.4735C32.4183 25.2876 31.8829 23.3353 31.8829 22.0034V16.7487C31.8829 11.4574 27.5445 7.1697 22.1906 7.1697Z" fill="white"/>
<path d="M25.6239 7.66177C25.4947 7.66177 25.3654 7.64352 25.2362 7.60703C24.7008 7.46106 24.1839 7.35159 23.6854 7.27861C22.1162 7.07791 20.6023 7.18738 19.1808 7.60703C18.6639 7.77124 18.1101 7.60703 17.7593 7.22387C17.4086 6.84071 17.2978 6.29334 17.5009 5.80071C18.2578 3.88492 20.1039 2.62598 22.2085 2.62598C24.3131 2.62598 26.1593 3.86668 26.9162 5.80071C27.1008 6.29334 27.0085 6.84071 26.6577 7.22387C26.3808 7.5158 25.9931 7.66177 25.6239 7.66177Z" fill="white"/>
<path d="M22.1899 42.0911C20.3622 42.0911 18.5899 41.3613 17.2976 40.0841C16.0053 38.8069 15.2668 37.0553 15.2668 35.249H18.0361C18.0361 36.3255 18.4791 37.3838 19.2545 38.1501C20.0299 38.9164 21.1006 39.3543 22.1899 39.3543C24.4791 39.3543 26.3437 37.5115 26.3437 35.249H29.1129C29.1129 39.0259 26.0114 42.0911 22.1899 42.0911Z" fill="white"/>
</svg>