<svg xmlns="http://www.w3.org/2000/svg" width="24" height="24" viewBox="0 0 24 24" fill="none">
<path d="M8.33445 22.6094H4.29445C2.28445 22.6094 1.31445 21.6794 1.31445 19.7594V3.95937C1.31445 2.03937 2.29445 1.10938 4.29445 1.10938H8.33445C10.3445 1.10938 11.3145 2.03937 11.3145 3.95937V19.7594C11.3145 21.6794 10.3345 22.6094 8.33445 22.6094ZM4.29445 2.60938C3.02445 2.60938 2.81445 2.94937 2.81445 3.95937V19.7594C2.81445 20.7694 3.02445 21.1094 4.29445 21.1094H8.33445C9.60445 21.1094 9.81445 20.7694 9.81445 19.7594V3.95937C9.81445 2.94937 9.60445 2.60938 8.33445 2.60938H4.29445Z" fill="white"/>
<path d="M19.8345 13.6094H15.7945C13.7845 13.6094 12.8145 12.6794 12.8145 10.7594V3.95937C12.8145 2.03937 13.7945 1.10938 15.7945 1.10938H19.8345C21.8445 1.10938 22.8145 2.03937 22.8145 3.95937V10.7594C22.8145 12.6794 21.8345 13.6094 19.8345 13.6094ZM15.7945 2.60938C14.5245 2.60938 14.3145 2.94937 14.3145 3.95937V10.7594C14.3145 11.7694 14.5245 12.1094 15.7945 12.1094H19.8345C21.1045 12.1094 21.3145 11.7694 21.3145 10.7594V3.95937C21.3145 2.94937 21.1045 2.60938 19.8345 2.60938H15.7945Z" fill="white"/>
<path d="M19.8345 22.6094H15.7945C13.7845 22.6094 12.8145 21.6794 12.8145 19.7594V17.9594C12.8145 16.0394 13.7945 15.1094 15.7945 15.1094H19.8345C21.8445 15.1094 22.8145 16.0394 22.8145 17.9594V19.7594C22.8145 21.6794 21.8345 22.6094 19.8345 22.6094ZM15.7945 16.6094C14.5245 16.6094 14.3145 16.9494 14.3145 17.9594V19.7594C14.3145 20.7694 14.5245 21.1094 15.7945 21.1094H19.8345C21.1045 21.1094 21.3145 20.7694 21.3145 19.7594V17.9594C21.3145 16.9494 21.1045 16.6094 19.8345 16.6094H15.7945Z" fill="white"/>
</svg>