<svg xmlns="http://www.w3.org/2000/svg" width="50" height="50" viewBox="0 0 48 48" fill="none">
<path d="M24 30C27.3137 30 30 27.3137 30 24C30 20.6863 27.3137 18 24 18C20.6863 18 18 20.6863 18 24C18 27.3137 20.6863 30 24 30Z" stroke="white" stroke-width="3"/>
<path d="M27.5299 4.304C26.7959 4 25.8639 4 23.9999 4C22.1359 4 21.2039 4 20.4699 4.304C19.9843 4.50503 19.543 4.79979 19.1714 5.17145C18.7997 5.5431 18.505 5.98436 18.3039 6.47C18.1199 6.916 18.0459 7.438 18.0179 8.196C18.0055 8.74398 17.8539 9.2798 17.5775 9.75314C17.3012 10.2265 16.909 10.6218 16.4379 10.902C15.9597 11.1701 15.4212 11.3122 14.873 11.315C14.3248 11.3178 13.7848 11.1812 13.3039 10.918C12.6319 10.562 12.1459 10.366 11.6639 10.302C10.6126 10.1637 9.54932 10.4486 8.70792 11.094C8.07992 11.58 7.61192 12.386 6.67992 14C5.74792 15.614 5.27992 16.42 5.17792 17.21C5.10919 17.7309 5.14376 18.2602 5.27966 18.7678C5.41555 19.2753 5.65011 19.7511 5.96992 20.168C6.26592 20.552 6.67992 20.874 7.32192 21.278C8.26792 21.872 8.87593 22.884 8.87593 24C8.87593 25.116 8.26792 26.128 7.32192 26.72C6.67992 27.126 6.26392 27.448 5.96992 27.832C5.65011 28.2489 5.41555 28.7247 5.27966 29.2322C5.14376 29.7398 5.10919 30.2691 5.17792 30.79C5.28192 31.578 5.74792 32.386 6.67792 34C7.61192 35.614 8.07792 36.42 8.70792 36.906C9.1248 37.2258 9.60059 37.4604 10.1081 37.5963C10.6157 37.7322 11.145 37.7667 11.6659 37.698C12.1459 37.634 12.6319 37.438 13.3039 37.082C13.7848 36.8188 14.3248 36.6822 14.873 36.685C15.4212 36.6878 15.9597 36.8299 16.4379 37.098C17.4039 37.658 17.9779 38.688 18.0179 39.804C18.0459 40.564 18.1179 41.084 18.3039 41.53C18.505 42.0156 18.7997 42.4569 19.1714 42.8286C19.543 43.2002 19.9843 43.495 20.4699 43.696C21.2039 44 22.1359 44 23.9999 44C25.8639 44 26.7959 44 27.5299 43.696C28.0156 43.495 28.4568 43.2002 28.8285 42.8286C29.2001 42.4569 29.4949 42.0156 29.6959 41.53C29.8799 41.084 29.9539 40.564 29.9819 39.804C30.0219 38.688 30.5959 37.656 31.5619 37.098C32.0401 36.8299 32.5786 36.6878 33.1269 36.685C33.6751 36.6822 34.215 36.8188 34.6959 37.082C35.3679 37.438 35.8539 37.634 36.3339 37.698C36.8548 37.7667 37.3842 37.7322 37.8917 37.5963C38.3993 37.4604 38.8751 37.2258 39.2919 36.906C39.9219 36.422 40.3879 35.614 41.3199 34C42.2519 32.386 42.7199 31.58 42.8219 30.79C42.8907 30.2691 42.8561 29.7398 42.7202 29.2322C42.5843 28.7247 42.3497 28.2489 42.0299 27.832C41.7339 27.448 41.3199 27.126 40.6779 26.722C40.2094 26.4372 39.821 26.038 39.5491 25.5618C39.2773 25.0857 39.131 24.5482 39.1239 24C39.1239 22.884 39.7319 21.872 40.6779 21.28C41.3199 20.874 41.7359 20.552 42.0299 20.168C42.3497 19.7511 42.5843 19.2753 42.7202 18.7678C42.8561 18.2602 42.8907 17.7309 42.8219 17.21C42.7179 16.422 42.2519 15.614 41.3219 14C40.3879 12.386 39.9219 11.58 39.2919 11.094C38.8751 10.7742 38.3993 10.5396 37.8917 10.4037C37.3842 10.2678 36.8548 10.2333 36.3339 10.302C35.8539 10.366 35.3679 10.562 34.6939 10.918C34.2133 11.1808 33.6737 11.3172 33.1259 11.3144C32.578 11.3116 32.0399 11.1697 31.5619 10.902C31.0908 10.6218 30.6987 10.2265 30.4223 9.75314C30.1459 9.2798 29.9944 8.74398 29.9819 8.196C29.9539 7.436 29.8819 6.916 29.6959 6.47C29.4949 5.98436 29.2001 5.5431 28.8285 5.17145C28.4568 4.79979 28.0156 4.50503 27.5299 4.304Z" stroke="white" stroke-width="3"/>
</svg>