<svg xmlns="http://www.w3.org/2000/svg" width="52" height="53" viewBox="0 0 52 53" fill="none">
<g clip-path="url(#clip0_485_2329)">
<path d="M38.1461 5.07453C36.808 6.41259 35.5821 7.86282 34.4924 9.4092L34.1479 9.29703C32.1609 8.64803 30.1017 8.24742 28.0265 8.11121C27.4015 8.06313 25.07 8.06313 24.3088 8.11121C22.0092 8.26344 20.2465 8.60797 18.2435 9.30504C18.1633 9.33709 18.0912 9.36113 18.0191 9.38516C16.8894 7.8468 15.6314 6.40458 14.2453 5.08255C20.8955 1.67731 28.6755 1.26868 35.6382 3.95281C36.3834 4.23324 37.1125 4.56175 37.8256 4.91429L38.1461 5.07453Z" fill="#F00500"/>
<path d="M50.5491 35.4652C49.5396 38.3416 48.0253 41.0097 46.0622 43.3333C44.9966 44.5832 43.8188 45.729 42.5528 46.7706C39.5883 49.1583 36.127 50.8649 32.4333 51.7623C28.347 52.7478 24.0844 52.7478 19.9981 51.7623C16.2965 50.8649 12.8431 49.1583 9.87858 46.7706C8.61264 45.729 7.43482 44.5832 6.36918 43.3333C0.720491 36.659 -0.994147 27.4929 1.88228 19.2322C2.42712 17.7018 3.10816 16.2276 3.92542 14.8254C4.302 14.1844 4.76672 13.4633 4.99106 13.1669C5.76025 16.476 6.7057 19.3844 7.05824 20.4341C7.0342 20.4901 7.00215 20.5542 6.97011 20.6103C5.10323 24.3921 4.09368 28.0378 3.85331 31.9157C3.85331 31.9638 3.8453 32.0199 3.8453 32.068C3.7812 33.2297 3.81325 33.7826 4.00554 34.5117C4.60647 36.7952 6.45732 39.3111 9.35778 41.7789C14.1091 45.8171 20.551 48.7336 25.4305 49.0701C30.5183 49.4147 38.0259 46.4421 43.0256 42.0994C43.8108 41.4023 44.5479 40.6652 45.237 39.88C45.7337 39.3031 46.4709 38.3096 46.4148 38.3096C46.3988 38.3096 46.4148 38.2935 46.4468 38.2775C46.4709 38.2615 46.4949 38.2375 46.4789 38.2214C46.4709 38.2134 46.4869 38.1894 46.5109 38.1814C46.535 38.1734 46.551 38.1573 46.543 38.1413C46.535 38.1253 46.543 38.1093 46.575 38.1012C46.5991 38.0932 46.6071 38.0692 46.5991 38.0532C46.5911 38.0371 46.5991 38.0211 46.6151 38.0211C46.6311 38.0211 46.6471 37.9971 46.6471 37.9811C46.6471 37.965 46.6632 37.941 46.6792 37.941C46.6952 37.941 46.7112 37.925 46.7112 37.909C46.7353 37.8449 46.7753 37.7808 46.8154 37.7247C46.9356 37.5404 47.4163 36.6831 47.4804 36.5388C47.9371 35.5052 48.2256 34.5838 48.3618 33.6624C48.4259 33.2217 48.4659 32.4125 48.4339 32.2202C48.4259 32.1881 48.4259 32.1321 48.4179 32.0439C48.4018 31.8837 48.3938 31.6433 48.3778 31.4029C48.3618 31.0424 48.3297 30.5376 48.3057 30.2892C47.9612 26.6516 47.0317 23.679 45.269 20.5302C45.1969 20.41 45.1328 20.2898 45.0928 20.1937C45.0767 20.1696 45.0687 20.1456 45.0607 20.1296C45.3091 19.3844 46.3267 16.2676 47.1359 12.7021L47.1519 12.7182L47.2721 12.8784C47.4804 13.1589 48.0333 13.9921 48.2817 14.3928C49.4114 16.2356 50.2928 18.2146 50.9177 20.2818C52.3679 25.2575 52.2478 30.5616 50.5491 35.4652Z" fill="#F00500"/>
<path d="M40.1492 25.8905C40.1251 26.0187 39.7485 26.4032 39.372 26.6837C38.2662 27.4929 36.2872 28.2461 34.2761 28.6066C33.1303 28.815 31.9845 28.847 31.64 28.6788C31.4156 28.5666 31.3836 28.4784 31.4637 28.19C31.632 27.5891 32.1768 26.9321 33.0261 26.3151C33.4588 26.0026 35.2135 24.937 36.0308 24.4883C37.3769 23.7512 38.4666 23.3105 39.2037 23.2063C39.4361 23.1743 39.7165 23.1663 39.8046 23.2063C39.9489 23.2624 40.1091 23.6871 40.1732 24.1999C40.2052 24.4723 40.1892 25.6741 40.1492 25.8905Z" fill="black"/>
<path d="M21.2721 28.5428C21.2241 28.639 20.9837 28.7431 20.7113 28.7832C20.4389 28.8233 19.6056 28.7992 19.1328 28.7431C17.4342 28.5188 15.6314 27.998 14.3174 27.357C13.5803 26.9964 13.0515 26.6359 12.6589 26.2433L12.4345 26.0109L12.4105 25.7065C12.3704 25.1776 12.3784 24.3444 12.4425 24.0479C12.4826 23.7995 12.5707 23.5592 12.6909 23.3428C12.755 23.2627 12.755 23.2627 13.0435 23.2627C13.396 23.2627 13.6924 23.3188 14.1732 23.471C15.1587 23.7755 16.625 24.5126 18.4117 25.5863C19.886 26.4676 20.4389 26.9003 20.8635 27.4932C21.152 27.8618 21.3442 28.3826 21.2721 28.5428Z" fill="black"/>
<path d="M32.6176 39.6959C32.6176 39.72 32.5215 40.1046 32.4013 40.5613C32.2811 41.018 32.185 41.3865 32.185 41.4026C32.0968 41.4106 32.0167 41.4186 31.9286 41.4106H31.6722L31.3196 42.2439C31.1273 42.7006 30.9511 43.1252 30.927 43.1893L30.8789 43.3015L30.7107 43.0291L30.5424 42.7566V40.5372L30.4783 40.5533C30.3421 40.5853 29.3726 40.7135 28.948 40.7536C27.1933 40.9298 25.4305 40.8898 23.6838 40.6414C23.4034 40.6013 23.163 40.5693 23.155 40.5773C23.147 40.5853 23.155 41.0981 23.171 41.7311L23.1951 42.8688L23.0589 43.0771C22.9868 43.1893 22.9146 43.2855 22.9146 43.2935C22.8906 43.3175 22.8105 43.1893 22.6262 42.8207C22.4259 42.4362 22.2817 42.0275 22.1775 41.6029L22.1214 41.3705L21.873 41.3865L21.6247 41.4106L21.5606 41.1141C21.5285 40.9539 21.4884 40.7055 21.4724 40.5693L21.4484 40.3129L21.2401 40.1286C21.1199 40.0244 20.9997 39.9203 20.9757 39.9043C20.9356 39.8722 20.9196 39.8161 20.9196 39.768V39.6719L21.9211 39.6799L22.9227 39.6879L22.9547 39.7921L22.9868 39.8962L23.3313 39.9123C23.5236 39.9203 24.1325 39.9363 24.6774 39.9523L25.6789 39.9764L25.9353 39.5758L26.1997 39.1751H26.5362L26.5282 38.3419L26.5202 37.5086L26.0795 37.3163C24.6613 36.6913 23.8281 35.9782 23.5156 35.1129C23.4515 34.9366 23.4515 34.8725 23.4354 34.0713C23.4274 33.2781 23.4274 33.206 23.4835 33.0297C23.5957 32.6291 23.9082 32.3166 24.3088 32.2124C24.445 32.1724 24.8056 32.1724 26.6965 32.1724L28.9239 32.1804L29.1723 32.3006C29.4688 32.4448 29.605 32.5489 29.7732 32.7733C29.9655 33.0297 30.0216 33.23 30.0216 33.7187C30.0216 34.4158 29.9736 35.0167 29.9014 35.2571C29.7973 35.5856 29.637 35.8981 29.4367 36.1785C29.0361 36.6913 28.307 37.2041 27.6419 37.4365L27.4496 37.5086L27.4577 38.3499L27.4657 39.1912L27.6419 39.2072L27.8182 39.2232L28.0586 39.5838L28.2909 39.9443H29.3646C29.9575 39.9443 30.4783 39.9523 30.5264 39.9603C30.6065 39.9764 30.6226 39.9684 30.7027 39.8322L30.7988 39.6879H31.7202C32.4093 39.6559 32.6176 39.6719 32.6176 39.6959Z" fill="black"/>
<path d="M28.3871 41.9955C28.2348 42.0837 28.1307 42.1237 28.1066 42.1077C28.0826 42.0997 27.9704 42.0035 27.8502 41.9154L27.6339 41.7391L27.4095 41.9795C26.9208 42.5083 26.9048 42.5324 26.7605 42.5404C26.5362 42.5644 26.4881 42.5244 26.2157 42.1157C26.0715 41.9074 25.9593 41.7311 25.9593 41.7311C25.9593 41.7311 25.8552 41.7151 25.735 41.7071L25.5106 41.683L25.4065 41.8994L25.3023 42.1157L25.118 42.0596C24.9738 42.0116 24.8296 41.9555 24.6934 41.8914L24.453 41.7712V41.3145L26.5843 41.3225L28.7156 41.3305L28.7236 41.5468C28.7316 41.8032 28.7396 41.7952 28.3871 41.9955Z" fill="black"/>
<path d="M48.4179 32.2202C48.4099 32.1882 48.4099 32.1321 48.4019 32.044C46.4789 31.8356 40.9904 31.7074 35.8946 35.9139C35.8946 35.9139 34.2521 28.3823 26.5602 28.3823C18.8684 28.3823 16.016 35.9139 16.016 35.9139C11.7054 31.2748 5.93651 31.6113 3.85331 31.9158C3.85331 31.9638 3.84529 32.0199 3.84529 32.068C3.78119 33.2298 3.81324 33.7826 4.00554 34.5118C4.60646 36.7953 6.45732 39.3111 9.35778 41.7789C14.1091 45.8171 20.551 48.7336 25.4305 49.0702C30.5183 49.4147 38.0259 46.4421 43.0256 42.0994C43.8108 41.4024 44.5479 40.6652 45.237 39.88C45.7337 39.3031 46.4709 38.3096 46.4148 38.3096C46.3988 38.3096 46.4148 38.2936 46.4469 38.2775C46.4709 38.2615 46.4949 38.2375 46.4789 38.2215C46.4709 38.2134 46.4869 38.1894 46.5109 38.1814C46.535 38.1734 46.551 38.1574 46.543 38.1413C46.535 38.1253 46.543 38.1093 46.5751 38.1013C46.5991 38.0933 46.6071 38.0692 46.5991 38.0532C46.5911 38.0372 46.5991 38.0212 46.6151 38.0212C46.6311 38.0212 46.6472 37.9971 46.6472 37.9811C46.6472 37.9651 46.6632 37.941 46.6792 37.941C46.6952 37.941 46.7113 37.925 46.7113 37.909C46.7353 37.8449 46.7754 37.7808 46.8154 37.7247C46.9356 37.5404 47.4163 36.6831 47.4804 36.5389C47.9371 35.5053 48.2256 34.5839 48.3618 33.6624C48.4099 33.2218 48.4499 32.4125 48.4179 32.2202ZM28.3871 41.9953C28.2348 42.0834 28.1307 42.1235 28.1066 42.1074C28.0826 42.0994 27.9704 42.0033 27.8502 41.9151L27.6339 41.7389L27.4095 41.9792C26.9208 42.5081 26.9048 42.5321 26.7606 42.5401C26.5362 42.5641 26.4881 42.5241 26.2157 42.1155C26.0715 41.9071 25.9593 41.7309 25.9593 41.7309C25.9593 41.7309 25.8552 41.7148 25.735 41.7068L25.5106 41.6828L25.4065 41.8991L25.3023 42.1155L25.118 42.0594C24.9738 42.0113 24.8296 41.9552 24.6934 41.8911L24.453 41.7709V41.3142L26.5843 41.3222L28.7156 41.3302L28.7236 41.5466C28.7316 41.803 28.7396 41.795 28.3871 41.9953ZM32.3932 40.553C32.273 41.0098 32.1769 41.3783 32.1769 41.3943C32.0888 41.4024 32.0086 41.4104 31.9205 41.4024H31.6641L31.3196 42.2436C31.1273 42.7004 30.951 43.125 30.927 43.1891L30.8789 43.3013L30.7106 43.0289L30.5424 42.7564V40.537L30.4783 40.553C30.3421 40.5851 29.3726 40.7133 28.9479 40.7534C27.1932 40.9296 25.4305 40.8896 23.6838 40.6412C23.4034 40.6011 23.163 40.5691 23.155 40.5771C23.147 40.5851 23.155 41.0979 23.171 41.7309L23.1951 42.8686L23.0589 43.0769C22.9868 43.1891 22.9146 43.2852 22.9146 43.2933C22.8906 43.3173 22.8105 43.1891 22.6262 42.8205C22.4259 42.4359 22.2817 42.0273 22.1775 41.6027L22.1214 41.3703L21.873 41.3863L21.6247 41.4104L21.5606 41.1139C21.5285 40.9537 21.4884 40.7053 21.4724 40.5691L21.4484 40.3127L21.2401 40.1284C21.1199 40.0242 20.9997 39.9201 20.9757 39.904C20.9356 39.872 20.9196 39.8159 20.9196 39.7678V39.6717L21.9211 39.6797L22.9226 39.6877L22.9547 39.7919L22.9867 39.896L23.3313 39.9121C23.5236 39.9201 24.1325 39.9361 24.6773 39.9521L25.6789 39.9762L25.9353 39.5755L26.1997 39.1749H26.5362L26.5282 38.3416L26.5202 37.5084L26.0795 37.3161C24.6613 36.6911 23.828 35.978 23.5156 35.1127C23.4515 34.9364 23.4515 34.8723 23.4354 34.0711C23.4274 33.2779 23.4274 33.2057 23.4835 33.0295C23.5957 32.6289 23.9082 32.3164 24.3088 32.2122C24.445 32.1722 24.8056 32.1722 26.6965 32.1722L28.9239 32.1802L29.1723 32.3004C29.4687 32.4446 29.6049 32.5487 29.7732 32.7731C29.9655 33.0295 30.0216 33.2298 30.0216 33.7185C30.0216 34.4156 29.9735 35.0165 29.9014 35.2569C29.7972 35.5854 29.637 35.8979 29.4367 36.1783C29.0361 36.6911 28.3069 37.2039 27.6419 37.4363L27.4496 37.5084L27.4576 38.3497L27.4656 39.191L27.6419 39.207L27.8182 39.223L28.0586 39.5836L28.2909 39.9441H29.3646C29.9575 39.9441 30.4783 39.9521 30.5263 39.9601C30.6065 39.9762 30.6225 39.9682 30.7026 39.8319L30.7988 39.6877H31.7202C32.4333 39.6877 32.6416 39.6957 32.6416 39.7198C32.6176 39.7118 32.5134 40.1044 32.3932 40.553Z" fill="white"/>
<path d="M48.3538 31.4031C48.3377 31.0425 48.3057 30.5378 48.2817 30.2894C47.9371 26.6518 47.0077 23.6792 45.245 20.5304C45.1729 20.4102 45.1088 20.29 45.0687 20.1939C45.0527 20.1698 45.0447 20.1458 45.0367 20.1298C45.285 19.3846 46.3026 16.2678 47.1119 12.7023C48.2095 7.8629 48.9066 2.2062 46.7753 0.507593C46.7753 0.507593 43.0897 0.235174 38.1541 5.07462C36.816 6.41267 35.5901 7.8629 34.5005 9.40928L34.1559 9.29711C32.1689 8.64811 30.1097 8.24749 28.0345 8.11128C27.4096 8.06321 25.078 8.06321 24.3168 8.11128C22.0173 8.26352 20.2545 8.60805 18.2515 9.30512C18.1713 9.33717 18.0992 9.3612 18.0271 9.38524C16.8974 7.84688 15.6394 6.40466 14.2533 5.08263C9.11741 0.21915 5.29553 0.49958 5.29553 0.49958C3.03606 2.25428 3.80524 8.16737 4.97504 13.1671C5.74422 16.4761 6.68968 19.3846 7.04222 20.4342C7.01818 20.4903 6.98613 20.5544 6.95408 20.6105C5.08721 24.3923 4.07766 28.0379 3.83729 31.9159C5.9285 31.6114 11.6894 31.2669 16.008 35.914C16.008 35.914 18.8604 28.3825 26.5522 28.3825C34.2441 28.3825 35.8866 35.914 35.8866 35.914C40.9824 31.7076 46.4709 31.8438 48.3938 32.0441C48.3858 31.8838 48.3698 31.6435 48.3538 31.4031ZM8.55655 17.4136C8.55655 17.4136 5.55994 9.92207 6.32912 5.64349C6.45732 4.92238 6.69769 4.28941 7.07427 3.80867C7.07427 3.80867 10.4715 4.14518 15.9519 10.2345C15.9519 10.2345 14.9103 10.7393 13.5162 11.813C13.5162 11.813 13.5082 11.821 13.5002 11.821C11.9858 12.9828 10.0468 14.8256 8.55655 17.4136ZM21.2721 28.5427C21.224 28.6388 20.9837 28.743 20.7112 28.7831C20.4388 28.8231 19.6055 28.7991 19.1328 28.743C17.4342 28.5187 15.6314 27.9979 14.3174 27.3569C13.5803 26.9963 13.0515 26.6358 12.6589 26.2432L12.4345 26.0108L12.4105 25.7063C12.3704 25.1775 12.3784 24.3442 12.4425 24.0478C12.4826 23.7994 12.5707 23.559 12.6909 23.3427C12.755 23.2626 12.755 23.2626 13.0435 23.2626C13.396 23.2626 13.6924 23.3187 14.1732 23.4709C15.1587 23.7754 16.625 24.5125 18.4117 25.5861C19.886 26.4675 20.4388 26.9002 20.8635 27.4931C21.1519 27.8617 21.3442 28.3825 21.2721 28.5427ZM40.1491 25.8906C40.1251 26.0188 39.7485 26.4034 39.372 26.6838C38.2663 27.4931 36.2872 28.2462 34.2761 28.6068C33.1304 28.8151 31.9846 28.8472 31.6401 28.6789C31.4157 28.5667 31.3837 28.4786 31.4638 28.1902C31.6321 27.5892 32.1769 26.9322 33.0262 26.3153C33.4589 26.0028 35.2136 24.9372 36.0308 24.4885C37.3769 23.7513 38.4666 23.3107 39.2037 23.2065C39.4361 23.1744 39.7165 23.1664 39.8046 23.2065C39.9488 23.2626 40.1091 23.6872 40.1732 24.2C40.2052 24.4724 40.1892 25.6743 40.1491 25.8906ZM38.8191 11.813L38.8031 11.805C37.457 10.7313 36.4475 10.2265 36.4475 10.2265C41.7436 4.13717 45.0206 3.80066 45.0206 3.80066C45.3812 4.28941 45.6136 4.91437 45.7418 5.63548C46.4869 9.91406 43.5944 17.4136 43.5944 17.4136C42.3846 15.2583 40.7581 13.3513 38.8191 11.813Z" fill="#FFA409"/>
<path d="M45.7498 5.6356C45.1248 5.55548 42.1683 5.53946 38.8192 11.8131L38.8031 11.8051C37.4571 10.7314 36.4475 10.2267 36.4475 10.2267C41.7436 4.1373 45.0207 3.80078 45.0207 3.80078C45.3892 4.28953 45.6216 4.91449 45.7498 5.6356Z" fill="#FF9300"/>
<path d="M43.6024 17.4137C42.3846 15.2503 40.7661 13.3514 38.8191 11.813C42.1682 5.5394 45.1168 5.55542 45.7497 5.63554C46.4949 9.92214 43.6024 17.4137 43.6024 17.4137Z" fill="#FF8300"/>
<path d="M45.87 5.65978C45.8299 5.65177 45.7898 5.64375 45.7498 5.63574L45.87 5.65978Z" fill="#FF8300"/>
<path d="M15.9519 10.2267C15.9519 10.2267 14.9103 10.7314 13.5162 11.8051C13.5162 11.8051 13.5082 11.8131 13.5002 11.8131C10.0308 5.53144 6.97812 5.55548 6.32111 5.6356C6.44931 4.91449 6.68968 4.28152 7.06626 3.80078C7.07428 3.80078 10.4715 4.1373 15.9519 10.2267Z" fill="#FF9300"/>
<path d="M13.5082 11.813C11.9858 12.9828 10.0469 14.8177 8.55656 17.4137C8.55656 17.4137 5.55994 9.92214 6.32913 5.63554C6.97812 5.55542 10.0388 5.5394 13.5082 11.813Z" fill="#FF8300"/>
<path d="M6.32912 5.63574C6.28906 5.64375 6.24099 5.65177 6.20093 5.65978L6.32912 5.63574Z" fill="#FF8300"/>
<path d="M35.494 21.5719C35.494 21.5719 32.93 21.7321 33.2505 19.7291C33.571 17.726 35.5741 17.4856 36.135 17.5657C36.6958 17.6458 38.9393 18.4471 38.5387 20.1297C38.138 21.8123 37.5772 21.4918 37.2567 21.5719C36.9362 21.652 35.494 21.5719 35.494 21.5719Z" fill="white"/>
<path d="M16.5849 21.5719C16.5849 21.5719 14.021 21.7321 14.3414 19.7291C14.6619 17.726 16.665 17.4856 17.2259 17.5657C17.7867 17.6458 20.0302 18.4471 19.6296 20.1297C19.2289 21.8123 18.6681 21.4918 18.3476 21.5719C18.0271 21.652 16.5849 21.5719 16.5849 21.5719Z" fill="white"/>
</g>
<defs>
<clipPath id="clip0_485_2329">
<rect width="51.4151" height="52" fill="white" transform="translate(0.5 0.5)"/>
</clipPath>
</defs>
</svg>