<svg xmlns="http://www.w3.org/2000/svg" width="24" height="24" viewBox="0 0 24 24" fill="none">
<path d="M15 22.0181H9C3.57 22.0181 1.25 19.6981 1.25 14.2681V8.26807C1.25 2.83807 3.57 0.518066 9 0.518066H15C20.43 0.518066 22.75 2.83807 22.75 8.26807V14.2681C22.75 19.6981 20.43 22.0181 15 22.0181ZM9 2.01807C4.39 2.01807 2.75 3.65807 2.75 8.26807V14.2681C2.75 18.8781 4.39 20.5181 9 20.5181H15C19.61 20.5181 21.25 18.8781 21.25 14.2681V8.26807C21.25 3.65807 19.61 2.01807 15 2.01807H9Z" fill="white"/>
<path d="M15.5801 18.5182C15.1701 18.5182 14.8301 18.1782 14.8301 17.7682V13.8682C14.8301 13.4582 15.1701 13.1182 15.5801 13.1182C15.9901 13.1182 16.3301 13.4582 16.3301 13.8682V17.7682C16.3301 18.1782 15.9901 18.5182 15.5801 18.5182Z" fill="white"/>
<path d="M15.5801 7.46807C15.1701 7.46807 14.8301 7.12807 14.8301 6.71807V4.76807C14.8301 4.35807 15.1701 4.01807 15.5801 4.01807C15.9901 4.01807 16.3301 4.35807 16.3301 4.76807V6.71807C16.3301 7.12807 15.9901 7.46807 15.5801 7.46807Z" fill="white"/>
<path d="M15.5805 12.6683C13.7305 12.6683 12.2305 11.1683 12.2305 9.31826C12.2305 7.46826 13.7305 5.96826 15.5805 5.96826C17.4305 5.96826 18.9305 7.46826 18.9305 9.31826C18.9305 11.1683 17.4205 12.6683 15.5805 12.6683ZM15.5805 7.46826C14.5605 7.46826 13.7305 8.29826 13.7305 9.31826C13.7305 10.3383 14.5605 11.1683 15.5805 11.1683C16.6005 11.1683 17.4305 10.3383 17.4305 9.31826C17.4305 8.29826 16.5905 7.46826 15.5805 7.46826Z" fill="white"/>
<path d="M8.41992 18.5179C8.00992 18.5179 7.66992 18.1779 7.66992 17.7679V15.8179C7.66992 15.4079 8.00992 15.0679 8.41992 15.0679C8.82992 15.0679 9.16992 15.4079 9.16992 15.8179V17.7679C9.16992 18.1779 8.83992 18.5179 8.41992 18.5179Z" fill="white"/>
<path d="M8.41992 9.41807C8.00992 9.41807 7.66992 9.07807 7.66992 8.66807V4.76807C7.66992 4.35807 8.00992 4.01807 8.41992 4.01807C8.82992 4.01807 9.16992 4.35807 9.16992 4.76807V8.66807C9.16992 9.07807 8.83992 9.41807 8.41992 9.41807Z" fill="white"/>
<path d="M8.42031 16.5682C6.57031 16.5682 5.07031 15.0682 5.07031 13.2182C5.07031 11.3682 6.57031 9.86816 8.42031 9.86816C10.2703 9.86816 11.7703 11.3682 11.7703 13.2182C11.7703 15.0682 10.2703 16.5682 8.42031 16.5682ZM8.42031 11.3682C7.40031 11.3682 6.57031 12.1982 6.57031 13.2182C6.57031 14.2382 7.40031 15.0682 8.42031 15.0682C9.44031 15.0682 10.2703 14.2382 10.2703 13.2182C10.2703 12.1982 9.45031 11.3682 8.42031 11.3682Z" fill="white"/>
</svg>