<svg xmlns="http://www.w3.org/2000/svg" width="53" height="45" viewBox="0 0 53 45" fill="none">
<g clip-path="url(#clip0_485_2291)">
<path fill-rule="evenodd" clip-rule="evenodd" d="M10.0215 0.306593L0.540109 20.0431C0.50403 20.1165 0.492596 20.1994 0.507481 20.2797C0.522366 20.36 0.562788 20.4335 0.622836 20.4894L26.2299 44.8063C26.3026 44.8754 26.3995 44.914 26.5003 44.914C26.6011 44.914 26.6979 44.8754 26.7707 44.8063L52.3777 20.4909C52.4378 20.435 52.4782 20.3615 52.4931 20.2812C52.508 20.2009 52.4965 20.118 52.4605 20.0446L42.979 0.308111C42.9484 0.241828 42.8992 0.185677 42.8373 0.14637C42.7753 0.107064 42.7033 0.0862632 42.6297 0.0864552H10.3739C10.3 0.085544 10.2274 0.105843 10.1649 0.144904C10.1024 0.183965 10.0526 0.24012 10.0215 0.306593Z" fill="#50AF95"/>
<path fill-rule="evenodd" clip-rule="evenodd" d="M29.7899 22.0701C29.6061 22.0837 28.6563 22.1399 26.5375 22.1399C24.8524 22.1399 23.6559 22.0898 23.2361 22.0701C16.7237 21.7861 11.8627 20.6627 11.8627 19.3176C11.8627 17.9725 16.7237 16.8505 23.2361 16.5621V20.9511C23.662 20.9815 24.8815 21.0529 26.5666 21.0529C28.5889 21.0529 29.6015 20.9694 29.7838 20.9527V16.5651C36.2825 16.852 41.1327 17.9755 41.1327 19.3176C41.1327 20.6597 36.284 21.7831 29.7838 22.0685L29.7899 22.0701ZM29.7899 16.1112V12.1836H38.8592V6.19434H14.1668V12.1836H23.2346V16.1096C15.8642 16.4452 10.3215 17.892 10.3215 19.6258C10.3215 21.3595 15.8642 22.8049 23.2346 23.1419V35.7277H29.7884V23.1373C37.1419 22.8018 42.6754 21.3565 42.6754 19.6242C42.6754 17.892 37.1465 16.4467 29.7884 16.1096L29.7899 16.1112Z" fill="white"/>
</g>
<defs>
<clipPath id="clip0_485_2291">
<rect width="52" height="44.8276" fill="white" transform="translate(0.5 0.0864258)"/>
</clipPath>
</defs>
</svg>