<svg xmlns="http://www.w3.org/2000/svg" width="24" height="24" viewBox="0 0 24 24" fill="none">
<path d="M15 22.0181H9C3.57 22.0181 1.25 19.6981 1.25 14.2681V8.26807C1.25 2.83807 3.57 0.518066 9 0.518066H15C20.43 0.518066 22.75 2.83807 22.75 8.26807V14.2681C22.75 19.6981 20.43 22.0181 15 22.0181ZM9 2.01807C4.39 2.01807 2.75 3.65807 2.75 8.26807V14.2681C2.75 18.8781 4.39 20.5181 9 20.5181H15C19.61 20.5181 21.25 18.8781 21.25 14.2681V8.26807C21.25 3.65807 19.61 2.01807 15 2.01807H9Z" fill="white"/>
<path d="M7.33011 14.5081C7.17011 14.5081 7.01011 14.4581 6.87011 14.3481C6.54011 14.0981 6.48011 13.6281 6.73011 13.2981L9.11011 10.2081C9.40011 9.83806 9.81011 9.59806 10.2801 9.53806C10.7401 9.47806 11.2101 9.60806 11.5801 9.89806L13.4101 11.3381C13.4801 11.3981 13.5501 11.3981 13.6001 11.3881C13.6401 11.3881 13.7101 11.3681 13.7701 11.2881L16.0801 8.30807C16.3301 7.97807 16.8101 7.91807 17.1301 8.17807C17.4601 8.42807 17.5201 8.89807 17.2601 9.22807L14.9501 12.2081C14.6601 12.5781 14.2501 12.8181 13.7801 12.8681C13.3101 12.9281 12.8501 12.7981 12.4801 12.5081L10.6501 11.0681C10.5801 11.0081 10.5001 11.0081 10.4601 11.0181C10.4201 11.0181 10.3501 11.0381 10.2901 11.1181L7.91011 14.2081C7.78011 14.4081 7.56011 14.5081 7.33011 14.5081Z" fill="white"/>
</svg>